<?xml version="1.0" encoding="utf-8"?>
<!-- Generator: Adobe Illustrator 21.0.0, SVG Export Plug-In . SVG Version: 6.00 Build 0)  -->
<svg version="1.1" id="图层_1" xmlns="http://www.w3.org/2000/svg" xmlns:xlink="http://www.w3.org/1999/xlink" x="0px" y="0px"
	 viewBox="0 0 91.8 91.8" style="enable-background:new 0 0 91.8 91.8;" xml:space="preserve">
<style type="text/css">
	.st0{fill:#40495A;}
	.st1{fill:#EAE8E8;}
	.st2{fill:#D7D4D4;}
	.st3{fill:#748191;}
	.st4{fill:#FFCD02;}
	.st5{fill:#2ECC71;}
	.st6{fill:#FF6E40;}
	.st7{fill:#26C6DA;}
</style>
<title>coding-browser</title>
<g id="coding-browser">
	<g id="coding-browser-2">
		<g id="browser">
			<path class="st0" d="M10.1,81.5h71.6c1.8,0,3.3-1.4,3.3-3V23.8H6.8v54.6C6.8,80.1,8.3,81.5,10.1,81.5z"/>
			<path class="st1" d="M81.7,13.6H10.1c-1.8,0-3.3,1.4-3.3,3v7.2h78.1v-7.2C84.9,15,83.5,13.6,81.7,13.6z"/>
			<rect x="13.3" y="17.4" class="st2" width="9.8" height="3"/>
			<rect x="29.6" y="17.4" class="st2" width="48.8" height="3"/>
		</g>
		<g id="coding-browser-3">
			<rect x="13.3" y="69.3" class="st3" width="6.5" height="3"/>
			<rect x="13.3" y="57.2" class="st3" width="6.5" height="3"/>
			<rect x="13.3" y="63.3" class="st3" width="6.5" height="3"/>
			<rect x="13.3" y="45.1" class="st3" width="6.5" height="3"/>
			<rect x="13.3" y="51.1" class="st3" width="6.5" height="3"/>
			<rect x="13.3" y="32.9" class="st3" width="6.5" height="3"/>
			<rect x="13.3" y="39" class="st3" width="6.5" height="3"/>
			<rect x="24.7" y="51.1" class="st4" width="4.9" height="3"/>
			<rect x="32.9" y="51.1" class="st5" width="16.3" height="3"/>
			<rect x="52.4" y="51.1" class="st6" width="6.5" height="3"/>
			<rect x="62.2" y="51.1" class="st7" width="9.8" height="3"/>
			<rect x="24.7" y="45.1" class="st5" width="9.8" height="3"/>
			<rect x="37.7" y="45.1" class="st7" width="16.3" height="3"/>
			<rect x="57.3" y="45.1" class="st6" width="9.8" height="3"/>
			<rect x="24.7" y="57.2" class="st6" width="9.8" height="3"/>
			<rect x="37.7" y="57.2" class="st7" width="4.9" height="3"/>
			<rect x="45.9" y="57.2" class="st4" width="6.5" height="3"/>
			<rect x="55.6" y="57.2" class="st5" width="13" height="3"/>
			<rect x="71.9" y="57.2" class="st4" width="3.3" height="3"/>
			<rect x="24.7" y="39" class="st7" width="3.3" height="3"/>
			<rect x="31.2" y="39" class="st4" width="26" height="3"/>
			<rect x="60.5" y="39" class="st5" width="14.6" height="3"/>
			<rect x="24.7" y="32.9" class="st6" width="6.5" height="3"/>
			<rect x="34.5" y="32.9" class="st6" width="13" height="3"/>
			<rect x="50.8" y="32.9" class="st4" width="4.9" height="3"/>
			<rect x="58.9" y="32.9" class="st7" width="19.5" height="3"/>
			<rect x="24.7" y="63.3" class="st4" width="24.4" height="3"/>
			<rect x="52.4" y="63.3" class="st7" width="13" height="3"/>
			<rect x="68.7" y="63.3" class="st6" width="9.8" height="3"/>
			<rect x="24.7" y="69.3" class="st7" width="6.5" height="3"/>
			<rect x="34.5" y="69.3" class="st5" width="9.8" height="3"/>
			<rect x="47.5" y="69.3" class="st6" width="14.6" height="3"/>
			<rect x="65.4" y="69.3" class="st4" width="6.5" height="3"/>
		</g>
	</g>
</g>
</svg>
