<?xml version="1.0" encoding="utf-8"?>
<!-- Generator: Adobe Illustrator 21.0.0, SVG Export Plug-In . SVG Version: 6.00 Build 0)  -->
<svg version="1.1" id="Layer_1" xmlns="http://www.w3.org/2000/svg" xmlns:xlink="http://www.w3.org/1999/xlink" x="0px" y="0px"
	 viewBox="0 0 508 508" style="enable-background:new 0 0 508 508;" xml:space="preserve">
<style type="text/css">
	.st0{fill:#919EA5;}
	.st1{fill:#EDF4FA;}
	.st2{fill:#91B6E0;}
	.st3{fill:#3A3730;}
	.st4{fill:#F2AD1D;}
	.st5{fill:#45495B;}
</style>
<rect x="72.2" y="68.1" transform="matrix(0.1266 -0.992 0.992 0.1266 3.4323 470.7101)" class="st0" width="393.7" height="330.6"/>
<rect x="52" y="69.7" class="st1" width="330.6" height="393.7"/>
<g>
	<rect x="99.4" y="134.3" class="st2" width="235.8" height="9.6"/>
	<rect x="99.4" y="197.9" class="st2" width="235.8" height="9.6"/>
	<rect x="99.4" y="261.9" class="st2" width="235.8" height="9.6"/>
	<rect x="99.4" y="325.6" class="st2" width="235.8" height="9.6"/>
	<rect x="99.4" y="389.5" class="st2" width="235.8" height="9.6"/>
</g>
<path class="st3" d="M296.8,109.3c-11.3-8.1-13.7-24.1-5.2-35.5l39.3-53.2c8.4-11.3,24.1-13.7,35.5-5.5c11.3,8.1,13.7,24.1,5.2,35.5
	l-39.3,53.2C323.8,115.1,308.1,117.7,296.8,109.3z M362.5,20.3c-8.1-5.8-19.8-3.8-25.9,4.9l-39.3,53.2c-6.4,8.4-4.9,20.4,3.2,26.2
	c8.1,5.8,19.8,3.8,25.9-4.7l39.3-53.2C372.1,37.7,370.6,26.1,362.5,20.3z"/>
<path class="st4" d="M424.7,416.3c8.1,5.5,10.2,16.6,4.9,24.7l-32.9,48.8c-5.5,8.1-16.6,10.5-24.7,4.9L65.3,288.6
	c-8.1-5.5-10.2-16.6-4.9-24.7l32.9-48.8c5.5-8.1,16.6-10.2,24.7-4.9L424.7,416.3z"/>
<g>
	<polygon class="st5" points="387.5,464.8 389.2,466 373.5,489.5 371.5,488.1 	"/>
	<polygon class="st5" points="375.6,466.6 377.3,468 366.3,484.6 364.5,483.4 	"/>
	
		<rect x="351.7" y="466.1" transform="matrix(0.5582 -0.8297 0.8297 0.5582 -226.0969 509.9022)" class="st5" width="28.2" height="2.3"/>
	
		<rect x="346.5" y="465" transform="matrix(0.5559 -0.8312 0.8312 0.5559 -229.0119 503.3414)" class="st5" width="20.1" height="2"/>
	<polygon class="st5" points="358.4,445.3 360.2,446.5 344.5,469.8 342.7,468.6 	"/>
	
		<rect x="332" y="455.3" transform="matrix(0.5561 -0.8311 0.8311 0.5561 -227.4766 486.8031)" class="st5" width="20.1" height="2"/>
	<polygon class="st5" points="351.7,423.8 353.5,425 329.9,460.2 327.9,459 	"/>
	<polygon class="st5" points="335.7,429.9 337.5,431.4 321.8,454.7 320,453.5 	"/>
	
		<rect x="309.3" y="440" transform="matrix(0.5595 -0.8288 0.8288 0.5595 -224.8734 458.9017)" class="st5" width="20.1" height="2"/>
	
		<rect x="300.3" y="431.7" transform="matrix(0.5546 -0.8321 0.8321 0.5546 -220.0118 454.3083)" class="st5" width="28.2" height="2"/>
	
		<rect x="294.7" y="429.9" transform="matrix(0.5584 -0.8296 0.8296 0.5584 -223.0284 443.1436)" class="st5" width="20.1" height="2.3"/>
	
		<rect x="285.6" y="421.7" transform="matrix(0.5596 -0.8288 0.8288 0.5596 -218.5095 434.6315)" class="st5" width="28.2" height="2.3"/>
	<polygon class="st5" points="295,412.5 296.8,413.7 285.4,430.2 283.7,429.1 	"/>
	<polygon class="st5" points="300,388.9 301.7,390.4 278.2,425.3 276.4,424.1 	"/>
	<polygon class="st5" points="284,395.3 286,396.5 270,420.1 268.3,418.9 	"/>
	
		<rect x="257.8" y="405.3" transform="matrix(0.5597 -0.8287 0.8287 0.5597 -218.775 400.8377)" class="st5" width="20.1" height="2"/>
	
		<rect x="248.5" y="397" transform="matrix(0.5595 -0.8288 0.8288 0.5595 -214.2109 392.9459)" class="st5" width="28.2" height="2"/>
	
		<rect x="243.1" y="395.7" transform="matrix(0.5548 -0.832 0.832 0.5548 -217.3082 387.2413)" class="st5" width="20.1" height="2"/>
	
		<rect x="233.9" y="386.9" transform="matrix(0.5571 -0.8304 0.8304 0.5571 -212.3968 377.7708)" class="st5" width="28.2" height="2.3"/>
	<polygon class="st5" points="243.3,377.6 245,379.1 234,395.6 232.2,394.5 	"/>
	<polygon class="st5" points="248.5,354.3 250.3,355.5 226.7,390.7 224.7,389.5 	"/>
	
		<rect x="211.4" y="371.7" transform="matrix(0.5584 -0.8296 0.8296 0.5584 -209.7162 351.7684)" class="st5" width="28.2" height="2.3"/>
	
		<rect x="206" y="370.4" transform="matrix(0.5595 -0.8288 0.8288 0.5595 -212.6732 342.7009)" class="st5" width="20.1" height="2"/>
	
		<rect x="197" y="362.3" transform="matrix(0.5546 -0.8321 0.8321 0.5546 -208.2938 337.4357)" class="st5" width="28.2" height="2"/>
	<polygon class="st5" points="206.3,352.9 208.1,354.1 196.8,370.6 195,369.5 	"/>
	
		<rect x="182.3" y="352.4" transform="matrix(0.5596 -0.8288 0.8288 0.5596 -206.4851 318.4756)" class="st5" width="28.2" height="2.3"/>
	<polygon class="st5" points="191.8,343 193.6,344.2 182.2,361 180.5,359.9 	"/>
	<polygon class="st5" points="196.8,319.7 198.5,320.9 174.9,356.1 173.2,354.9 	"/>
	<polygon class="st5" points="180.8,325.9 182.8,327 166.8,350.6 165.1,349.4 	"/>
	
		<rect x="154.5" y="335.9" transform="matrix(0.5597 -0.8287 0.8287 0.5597 -206.7943 284.6757)" class="st5" width="20.1" height="2"/>
	<polygon class="st5" points="166.2,316.3 168.3,317.4 152.3,341 150.5,339.5 	"/>
	<polygon class="st5" points="154.6,318 156.3,319.5 145.3,336 143.3,334.9 	"/>
	
		<rect x="130.7" y="317.7" transform="matrix(0.5609 -0.8279 0.8279 0.5609 -200.3174 259.8173)" class="st5" width="28.2" height="2"/>
	<polygon class="st5" points="140.1,308.4 141.8,309.6 130.8,326.1 129,325 	"/>
	
		<rect x="113.1" y="301.9" transform="matrix(0.5548 -0.832 0.832 0.5548 -192.3595 246.6764)" class="st5" width="42.4" height="2.3"/>
	
		<rect x="108.1" y="302.3" transform="matrix(0.5607 -0.828 0.828 0.5607 -197.5972 234.513)" class="st5" width="28.2" height="2.3"/>
	
		<rect x="102.8" y="301" transform="matrix(0.5595 -0.8288 0.8288 0.5595 -200.6781 226.5365)" class="st5" width="20.1" height="2"/>
	
		<rect x="93.6" y="292.9" transform="matrix(0.5546 -0.8321 0.8321 0.5546 -196.5886 220.5387)" class="st5" width="28.2" height="2"/>
	
		<rect x="88" y="291.1" transform="matrix(0.5597 -0.8287 0.8287 0.5597 -199.0687 209.9342)" class="st5" width="20.1" height="2.3"/>
	<polygon class="st5" points="100.2,271.8 102,272.9 86.3,296.5 84.5,295 	"/>
	
		<rect x="73.6" y="281.3" transform="matrix(0.557 -0.8305 0.8305 0.557 -197.4844 194.5966)" class="st5" width="20.1" height="2.3"/>
	<polygon class="st5" points="93.5,250.3 95.3,251.4 71.7,286.6 70,285.4 	"/>
</g>
</svg>
