<?xml version="1.0" encoding="utf-8"?>
<!-- Generator: Adobe Illustrator 21.0.0, SVG Export Plug-In . SVG Version: 6.00 Build 0)  -->
<svg version="1.1" id="Layer_1" xmlns="http://www.w3.org/2000/svg" xmlns:xlink="http://www.w3.org/1999/xlink" x="0px" y="0px"
	 viewBox="0 0 508 508" style="enable-background:new 0 0 508 508;" xml:space="preserve">
<style type="text/css">
	.st0{fill:#919EA5;}
	.st1{fill:#EDF4FA;}
	.st2{fill:#91B6E0;}
	.st3{fill:#3A3730;}
</style>
<rect x="72.2" y="68.1" transform="matrix(3.877057e-02 -0.9992 0.9992 3.877057e-02 25.411 493.138)" class="st0" width="393.7" height="330.6"/>
<rect x="75" y="57.1" class="st1" width="330.6" height="393.7"/>
<g>
	<rect x="122.4" y="121.7" class="st2" width="235.8" height="9.6"/>
	<rect x="122.4" y="185.3" class="st2" width="212.6" height="9.6"/>
	<rect x="122.4" y="249.3" class="st2" width="235.8" height="9.6"/>
	<rect x="122.4" y="313" class="st2" width="212.6" height="9.6"/>
	<rect x="122.4" y="376.9" class="st2" width="235.8" height="9.6"/>
</g>
<path class="st3" d="M296.8,109.3c-11.3-8.1-13.7-24.1-5.2-35.5l39.3-53.2c8.4-11.3,24.1-13.7,35.5-5.5c11.3,8.1,13.7,24.1,5.2,35.5
	l-39.3,53.2C323.8,115.1,308.1,117.7,296.8,109.3z M362.5,20.3c-8.1-5.8-19.8-3.8-25.9,4.9l-39.3,53.2c-6.4,8.4-4.9,20.4,3.2,26.2
	s19.8,3.8,25.9-4.7l39.3-53.2C372.1,37.7,370.6,26.1,362.5,20.3z"/>
</svg>
